solid Untitled-5b266224
facet normal -0.0 -0.0 -1.0
  outer loop
    vertex 37.6197341480043 58.26852057278059 0.0
    vertex 37.46784243963027 55.73923800289533 0.0
    vertex 37.44037661931777 56.98991511165997 0.0
  endloop
endfacet
facet normal -0.0 -0.0 -1.0
  outer loop
    vertex 37.46784243963027 55.73923800289533 0.0
    vertex 37.6197341480043 58.26852057278059 0.0
    vertex 37.65538249395156 54.733164051174136 0.0
  endloop
endfacet
facet normal -0.0 -0.0 -1.0
  outer loop
    vertex 37.65538249395156 54.733164051174136 0.0
    vertex 37.6197341480043 58.26852057278059 0.0
    vertex 37.98402343175673 59.48151324093246 0.0
  endloop
endfacet
facet normal -0.0 -0.0 -1.0
  outer loop
    vertex 37.65538249395156 54.733164051174136 0.0
    vertex 37.98402343175673 59.48151324093246 0.0
    vertex 37.994327882745516 53.78594610988996 0.0
  endloop
endfacet
facet normal -0.0 -0.0 -1.0
  outer loop
    vertex 37.994327882745516 53.78594610988996 0.0
    vertex 37.98402343175673 59.48151324093246 0.0
    vertex 38.473282197931056 60.49722407162092 0.0
  endloop
endfacet
facet normal -0.0 -0.0 -1.0
  outer loop
    vertex 37.994327882745516 53.78594610988996 0.0
    vertex 38.473282197931056 60.49722407162092 0.0
    vertex 38.63724742315078 52.628576496242495 0.0
  endloop
endfacet
facet normal -0.0 -0.0 -1.0
  outer loop
    vertex 38.63724742315078 52.628576496242495 0.0
    vertex 38.473282197931056 60.49722407162092 0.0
    vertex 39.0782073535707 61.36122916042707 0.0
  endloop
endfacet
facet normal -0.0 -0.0 -1.0
  outer loop
    vertex 38.63724742315078 52.628576496242495 0.0
    vertex 39.0782073535707 61.36122916042707 0.0
    vertex 39.884715417840724 51.04847166836165 0.0
  endloop
endfacet
facet normal -0.0 -0.0 -1.0
  outer loop
    vertex 39.884715417840724 51.04847166836165 0.0
    vertex 39.0782073535707 61.36122916042707 0.0
    vertex 39.79413066289687 62.0888922005882 0.0
  endloop
endfacet
facet normal -0.0 -0.0 -1.0
  outer loop
    vertex 39.884715417840724 51.04847166836165 0.0
    vertex 39.79413066289687 62.0888922005882 0.0
    vertex 40.63395057103896 62.69255373775862 0.0
  endloop
endfacet
facet normal -0.0 -0.0 -1.0
  outer loop
    vertex 39.884715417840724 51.04847166836165 0.0
    vertex 40.63395057103896 62.69255373775862 0.0
    vertex 42.57681880376601 48.50802157223127 0.0
  endloop
endfacet
facet normal -0.0 -0.0 -1.0
  outer loop
    vertex 42.57681880376601 48.50802157223127 0.0
    vertex 40.63395057103896 62.69255373775862 0.0
    vertex 41.60706553838515 63.16220495998761 0.0
  endloop
endfacet
facet normal -0.0 -0.0 -1.0
  outer loop
    vertex 42.57681880376601 48.50802157223127 0.0
    vertex 41.60706553838515 63.16220495998761 0.0
    vertex 42.59579215429091 63.45083449184798 0.0
  endloop
endfacet
facet normal -0.0 -0.0 -1.0
  outer loop
    vertex 42.57681880376601 48.50802157223127 0.0
    vertex 42.59579215429091 63.45083449184798 0.0
    vertex 46.96579490087294 44.88737795650861 0.0
  endloop
endfacet
facet normal -0.0 -0.0 -1.0
  outer loop
    vertex 46.96579490087294 44.88737795650861 0.0
    vertex 42.59579215429091 63.45083449184798 0.0
    vertex 43.6979297199037 63.59187815487289 0.0
  endloop
endfacet
facet normal -0.0 -0.0 -1.0
  outer loop
    vertex 46.96579490087294 44.88737795650861 0.0
    vertex 43.6979297199037 63.59187815487289 0.0
    vertex 44.99832187078261 63.54646418392561 0.0
  endloop
endfacet
facet normal -0.0 -0.0 -1.0
  outer loop
    vertex 46.96579490087294 44.88737795650861 0.0
    vertex 44.99832187078261 63.54646418392561 0.0
    vertex 46.46201167485977 63.24094031155012 0.0
  endloop
endfacet
facet normal -0.0 -0.0 -1.0
  outer loop
    vertex 46.96579490087294 44.88737795650861 0.0
    vertex 46.46201167485977 63.24094031155012 0.0
    vertex 47.96885524175429 62.64147017300031 0.0
  endloop
endfacet
facet normal -0.0 -0.0 -1.0
  outer loop
    vertex 46.96579490087294 44.88737795650861 0.0
    vertex 47.96885524175429 62.64147017300031 0.0
    vertex 49.04038939855361 42.99526903927229 0.0
  endloop
endfacet
facet normal -0.0 -0.0 -1.0
  outer loop
    vertex 49.04038939855361 42.99526903927229 0.0
    vertex 47.96885524175429 62.64147017300031 0.0
    vertex 49.462304452874896 61.72691080868147 0.0
  endloop
endfacet
facet normal -0.0 -0.0 -1.0
  outer loop
    vertex 49.04038939855361 42.99526903927229 0.0
    vertex 49.462304452874896 61.72691080868147 0.0
    vertex 50.66358600042128 41.17544386684797 0.0
  endloop
endfacet
facet normal -0.0 -0.0 -1.0
  outer loop
    vertex 50.66358600042128 41.17544386684797 0.0
    vertex 49.462304452874896 61.72691080868147 0.0
    vertex 50.88959727666639 60.47663424312971 0.0
  endloop
endfacet
facet normal -0.0 -0.0 -1.0
  outer loop
    vertex 50.66358600042128 41.17544386684797 0.0
    vertex 50.88959727666639 60.47663424312971 0.0
    vertex 51.549730638482814 39.8559877663841 0.0
  endloop
endfacet
facet normal -0.0 -0.0 -1.0
  outer loop
    vertex 51.549730638482814 39.8559877663841 0.0
    vertex 50.88959727666639 60.47663424312971 0.0
    vertex 52.16797385595106 58.90717242061993 0.0
  endloop
endfacet
facet normal -0.0 -0.0 -1.0
  outer loop
    vertex 51.549730638482814 39.8559877663841 0.0
    vertex 52.16797385595106 58.90717242061993 0.0
    vertex 52.11556468389296 38.66760943233867 0.0
  endloop
endfacet
facet normal -0.0 -0.0 -1.0
  outer loop
    vertex 52.11556468389296 38.66760943233867 0.0
    vertex 52.16797385595106 58.90717242061993 0.0
    vertex 52.68478904149793 39.67367384731673 0.0
  endloop
endfacet
facet normal -0.0 -0.0 -1.0
  outer loop
    vertex 52.68478904149793 39.67367384731673 0.0
    vertex 52.16797385595106 58.90717242061993 0.0
    vertex 52.44415793798232 59.29357264339827 0.0
  endloop
endfacet
facet normal -0.0 -0.0 -1.0
  outer loop
    vertex 52.68478904149793 39.67367384731673 0.0
    vertex 52.44415793798232 59.29357264339827 0.0
    vertex 53.68624244115615 60.71797583401104 0.0
  endloop
endfacet
facet normal -0.0 -0.0 -1.0
  outer loop
    vertex 52.68478904149793 39.67367384731673 0.0
    vertex 53.68624244115615 60.71797583401104 0.0
    vertex 53.67627177617812 41.18051741421126 0.0
  endloop
endfacet
facet normal -0.0 -0.0 -1.0
  outer loop
    vertex 53.67627177617812 41.18051741421126 0.0
    vertex 53.68624244115615 60.71797583401104 0.0
    vertex 55.66715274236464 43.35793707668683 0.0
  endloop
endfacet
facet normal -0.0 -0.0 -1.0
  outer loop
    vertex 55.66715274236464 43.35793707668683 0.0
    vertex 53.68624244115615 60.71797583401104 0.0
    vertex 55.05769286535049 61.85907576382061 0.0
  endloop
endfacet
facet normal -0.0 -0.0 -1.0
  outer loop
    vertex 55.66715274236464 43.35793707668683 0.0
    vertex 55.05769286535049 61.85907576382061 0.0
    vertex 56.466250757196185 62.69030783474348 0.0
  endloop
endfacet
facet normal -0.0 -0.0 -1.0
  outer loop
    vertex 55.66715274236464 43.35793707668683 0.0
    vertex 56.466250757196185 62.69030783474348 0.0
    vertex 59.34887442968154 46.52409766018294 0.0
  endloop
endfacet
facet normal -0.0 -0.0 -1.0
  outer loop
    vertex 59.34887442968154 46.52409766018294 0.0
    vertex 56.466250757196185 62.69030783474348 0.0
    vertex 57.85482917211318 63.23518488705059 0.0
  endloop
endfacet
facet normal -0.0 -0.0 -1.0
  outer loop
    vertex 59.34887442968154 46.52409766018294 0.0
    vertex 57.85482917211318 63.23518488705059 0.0
    vertex 59.17678389928603 63.52590773403548 0.0
  endloop
endfacet
facet normal -0.0 -0.0 -1.0
  outer loop
    vertex 59.34887442968154 46.52409766018294 0.0
    vertex 59.17678389928603 63.52590773403548 0.0
    vertex 60.45669589422011 63.59875891506573 0.0
  endloop
endfacet
facet normal -0.0 -0.0 -1.0
  outer loop
    vertex 59.34887442968154 46.52409766018294 0.0
    vertex 60.45669589422011 63.59875891506573 0.0
    vertex 63.24440989873671 49.829561451076486 0.0
  endloop
endfacet
facet normal -0.0 -0.0 -1.0
  outer loop
    vertex 63.24440989873671 49.829561451076486 0.0
    vertex 60.45669589422011 63.59875891506573 0.0
    vertex 61.57453570745253 63.48342154323957 0.0
  endloop
endfacet
facet normal -0.0 -0.0 -1.0
  outer loop
    vertex 63.24440989873671 49.829561451076486 0.0
    vertex 61.57453570745253 63.48342154323957 0.0
    vertex 62.586112359979396 63.21453783810041 0.0
  endloop
endfacet
facet normal -0.0 -0.0 -1.0
  outer loop
    vertex 63.24440989873671 49.829561451076486 0.0
    vertex 62.586112359979396 63.21453783810041 0.0
    vertex 63.49871192357802 62.80848715603254 0.0
  endloop
endfacet
facet normal -0.0 -0.0 -1.0
  outer loop
    vertex 63.24440989873671 49.829561451076486 0.0
    vertex 63.49871192357802 62.80848715603254 0.0
    vertex 64.47151217839979 51.070773342250796 0.0
  endloop
endfacet
facet normal -0.0 -0.0 -1.0
  outer loop
    vertex 64.47151217839979 51.070773342250796 0.0
    vertex 63.49871192357802 62.80848715603254 0.0
    vertex 64.32190452001358 62.26878855526351 0.0
  endloop
endfacet
facet normal -0.0 -0.0 -1.0
  outer loop
    vertex 64.47151217839979 51.070773342250796 0.0
    vertex 64.32190452001358 62.26878855526351 0.0
    vertex 65.05959544561172 61.58795569240948 0.0
  endloop
endfacet
facet normal -0.0 -0.0 -1.0
  outer loop
    vertex 64.47151217839979 51.070773342250796 0.0
    vertex 65.05959544561172 61.58795569240948 0.0
    vertex 65.57676825902723 52.448012569545725 0.0
  endloop
endfacet
facet normal -0.0 -0.0 -1.0
  outer loop
    vertex 65.57676825902723 52.448012569545725 0.0
    vertex 65.05959544561172 61.58795569240948 0.0
    vertex 65.54152522466445 60.993177631496415 0.0
  endloop
endfacet
facet normal -0.0 -0.0 -1.0
  outer loop
    vertex 65.57676825902723 52.448012569545725 0.0
    vertex 65.54152522466445 60.993177631496415 0.0
    vertex 66.07995543859266 60.09602759182355 0.0
  endloop
endfacet
facet normal -0.0 -0.0 -1.0
  outer loop
    vertex 65.57676825902723 52.448012569545725 0.0
    vertex 66.07995543859266 60.09602759182355 0.0
    vertex 66.22467074773573 53.53804800808333 0.0
  endloop
endfacet
facet normal -0.0 -0.0 -1.0
  outer loop
    vertex 66.22467074773573 53.53804800808333 0.0
    vertex 66.07995543859266 60.09602759182355 0.0
    vertex 66.55530963323379 58.8894054681053 0.0
  endloop
endfacet
facet normal -0.0 -0.0 -1.0
  outer loop
    vertex 66.22467074773573 53.53804800808333 0.0
    vertex 66.55530963323379 58.8894054681053 0.0
    vertex 66.61035571477674 54.49188444912335 0.0
  endloop
endfacet
facet normal -0.0 -0.0 -1.0
  outer loop
    vertex 66.61035571477674 54.49188444912335 0.0
    vertex 66.55530963323379 58.8894054681053 0.0
    vertex 66.82560000798965 57.66853545009992 0.0
  endloop
endfacet
facet normal -0.0 -0.0 -1.0
  outer loop
    vertex 66.61035571477674 54.49188444912335 0.0
    vertex 66.82560000798965 57.66853545009992 0.0
    vertex 66.84108767888809 55.52226755916975 0.0
  endloop
endfacet
facet normal -0.0 -0.0 -1.0
  outer loop
    vertex 66.84108767888809 55.52226755916975 0.0
    vertex 66.82560000798965 57.66853545009992 0.0
    vertex 66.90983806035781 56.521036365627275 0.0
  endloop
endfacet
facet normal 0.0 0.0 1.0
  outer loop
    vertex 37.46784243963027 55.73923800289533 1.9999999999999998
    vertex 37.6197341480043 58.26852057278059 1.9999999999999998
    vertex 37.44037661931777 56.98991511165997 1.9999999999999998
  endloop
endfacet
facet normal 0.0 0.0 1.0
  outer loop
    vertex 37.6197341480043 58.26852057278059 1.9999999999999998
    vertex 37.46784243963027 55.73923800289533 1.9999999999999998
    vertex 37.65538249395156 54.733164051174136 1.9999999999999998
  endloop
endfacet
facet normal 0.0 0.0 1.0
  outer loop
    vertex 37.6197341480043 58.26852057278059 1.9999999999999998
    vertex 37.65538249395156 54.733164051174136 1.9999999999999998
    vertex 37.98402343175673 59.48151324093246 1.9999999999999998
  endloop
endfacet
facet normal 0.0 0.0 1.0
  outer loop
    vertex 37.98402343175673 59.48151324093246 1.9999999999999998
    vertex 37.65538249395156 54.733164051174136 1.9999999999999998
    vertex 37.994327882745516 53.78594610988996 1.9999999999999998
  endloop
endfacet
facet normal 0.0 0.0 1.0
  outer loop
    vertex 37.98402343175673 59.48151324093246 1.9999999999999998
    vertex 37.994327882745516 53.78594610988996 1.9999999999999998
    vertex 38.473282197931056 60.49722407162092 1.9999999999999998
  endloop
endfacet
facet normal 0.0 0.0 1.0
  outer loop
    vertex 38.473282197931056 60.49722407162092 1.9999999999999998
    vertex 37.994327882745516 53.78594610988996 1.9999999999999998
    vertex 38.63724742315078 52.628576496242495 1.9999999999999998
  endloop
endfacet
facet normal 0.0 0.0 1.0
  outer loop
    vertex 38.473282197931056 60.49722407162092 1.9999999999999998
    vertex 38.63724742315078 52.628576496242495 1.9999999999999998
    vertex 39.0782073535707 61.36122916042707 1.9999999999999998
  endloop
endfacet
facet normal 0.0 0.0 1.0
  outer loop
    vertex 39.0782073535707 61.36122916042707 1.9999999999999998
    vertex 38.63724742315078 52.628576496242495 1.9999999999999998
    vertex 39.884715417840724 51.04847166836165 1.9999999999999998
  endloop
endfacet
facet normal 0.0 0.0 1.0
  outer loop
    vertex 39.0782073535707 61.36122916042707 1.9999999999999998
    vertex 39.884715417840724 51.04847166836165 1.9999999999999998
    vertex 39.79413066289687 62.0888922005882 1.9999999999999998
  endloop
endfacet
facet normal 0.0 0.0 1.0
  outer loop
    vertex 39.79413066289687 62.0888922005882 1.9999999999999998
    vertex 39.884715417840724 51.04847166836165 1.9999999999999998
    vertex 40.63395057103896 62.69255373775862 1.9999999999999998
  endloop
endfacet
facet normal 0.0 0.0 1.0
  outer loop
    vertex 40.63395057103896 62.69255373775862 1.9999999999999998
    vertex 39.884715417840724 51.04847166836165 1.9999999999999998
    vertex 42.57681880376601 48.50802157223127 1.9999999999999998
  endloop
endfacet
facet normal 0.0 0.0 1.0
  outer loop
    vertex 40.63395057103896 62.69255373775862 1.9999999999999998
    vertex 42.57681880376601 48.50802157223127 1.9999999999999998
    vertex 41.60706553838515 63.16220495998761 1.9999999999999998
  endloop
endfacet
facet normal 0.0 0.0 1.0
  outer loop
    vertex 41.60706553838515 63.16220495998761 1.9999999999999998
    vertex 42.57681880376601 48.50802157223127 1.9999999999999998
    vertex 42.59579215429091 63.45083449184798 1.9999999999999998
  endloop
endfacet
facet normal 0.0 0.0 1.0
  outer loop
    vertex 42.59579215429091 63.45083449184798 1.9999999999999998
    vertex 42.57681880376601 48.50802157223127 1.9999999999999998
    vertex 46.96579490087294 44.88737795650861 1.9999999999999998
  endloop
endfacet
facet normal 0.0 0.0 1.0
  outer loop
    vertex 42.59579215429091 63.45083449184798 1.9999999999999998
    vertex 46.96579490087294 44.88737795650861 1.9999999999999998
    vertex 43.6979297199037 63.59187815487289 1.9999999999999998
  endloop
endfacet
facet normal 0.0 0.0 1.0
  outer loop
    vertex 43.6979297199037 63.59187815487289 1.9999999999999998
    vertex 46.96579490087294 44.88737795650861 1.9999999999999998
    vertex 44.99832187078261 63.54646418392561 1.9999999999999998
  endloop
endfacet
facet normal 0.0 0.0 1.0
  outer loop
    vertex 44.99832187078261 63.54646418392561 1.9999999999999998
    vertex 46.96579490087294 44.88737795650861 1.9999999999999998
    vertex 46.46201167485977 63.24094031155012 1.9999999999999998
  endloop
endfacet
facet normal 0.0 0.0 1.0
  outer loop
    vertex 46.46201167485977 63.24094031155012 1.9999999999999998
    vertex 46.96579490087294 44.88737795650861 1.9999999999999998
    vertex 47.96885524175429 62.64147017300031 1.9999999999999998
  endloop
endfacet
facet normal 0.0 0.0 1.0
  outer loop
    vertex 47.96885524175429 62.64147017300031 1.9999999999999998
    vertex 46.96579490087294 44.88737795650861 1.9999999999999998
    vertex 49.04038939855361 42.99526903927229 1.9999999999999998
  endloop
endfacet
facet normal 0.0 0.0 1.0
  outer loop
    vertex 47.96885524175429 62.64147017300031 1.9999999999999998
    vertex 49.04038939855361 42.99526903927229 1.9999999999999998
    vertex 49.462304452874896 61.72691080868147 1.9999999999999998
  endloop
endfacet
facet normal 0.0 0.0 1.0
  outer loop
    vertex 49.462304452874896 61.72691080868147 1.9999999999999998
    vertex 49.04038939855361 42.99526903927229 1.9999999999999998
    vertex 50.66358600042128 41.17544386684797 1.9999999999999998
  endloop
endfacet
facet normal 0.0 0.0 1.0
  outer loop
    vertex 49.462304452874896 61.72691080868147 1.9999999999999998
    vertex 50.66358600042128 41.17544386684797 1.9999999999999998
    vertex 50.88959727666639 60.47663424312971 1.9999999999999998
  endloop
endfacet
facet normal 0.0 0.0 1.0
  outer loop
    vertex 50.88959727666639 60.47663424312971 1.9999999999999998
    vertex 50.66358600042128 41.17544386684797 1.9999999999999998
    vertex 51.549730638482814 39.8559877663841 1.9999999999999998
  endloop
endfacet
facet normal 0.0 0.0 1.0
  outer loop
    vertex 50.88959727666639 60.47663424312971 1.9999999999999998
    vertex 51.549730638482814 39.8559877663841 1.9999999999999998
    vertex 52.16797385595106 58.90717242061993 1.9999999999999998
  endloop
endfacet
facet normal 0.0 0.0 1.0
  outer loop
    vertex 52.16797385595106 58.90717242061993 1.9999999999999998
    vertex 51.549730638482814 39.8559877663841 1.9999999999999998
    vertex 52.11556468389296 38.66760943233867 1.9999999999999998
  endloop
endfacet
facet normal 0.0 0.0 1.0
  outer loop
    vertex 52.16797385595106 58.90717242061993 1.9999999999999998
    vertex 52.11556468389296 38.66760943233867 1.9999999999999998
    vertex 52.68478904149793 39.67367384731673 1.9999999999999998
  endloop
endfacet
facet normal 0.0 0.0 1.0
  outer loop
    vertex 52.16797385595106 58.90717242061993 1.9999999999999998
    vertex 52.68478904149793 39.67367384731673 1.9999999999999998
    vertex 52.44415793798232 59.29357264339827 1.9999999999999998
  endloop
endfacet
facet normal 0.0 0.0 1.0
  outer loop
    vertex 52.44415793798232 59.29357264339827 1.9999999999999998
    vertex 52.68478904149793 39.67367384731673 1.9999999999999998
    vertex 53.68624244115615 60.71797583401104 1.9999999999999998
  endloop
endfacet
facet normal 0.0 0.0 1.0
  outer loop
    vertex 53.68624244115615 60.71797583401104 1.9999999999999998
    vertex 52.68478904149793 39.67367384731673 1.9999999999999998
    vertex 53.67627177617812 41.18051741421126 1.9999999999999998
  endloop
endfacet
facet normal 0.0 0.0 1.0
  outer loop
    vertex 53.68624244115615 60.71797583401104 1.9999999999999998
    vertex 53.67627177617812 41.18051741421126 1.9999999999999998
    vertex 55.66715274236464 43.35793707668683 1.9999999999999998
  endloop
endfacet
facet normal 0.0 0.0 1.0
  outer loop
    vertex 53.68624244115615 60.71797583401104 1.9999999999999998
    vertex 55.66715274236464 43.35793707668683 1.9999999999999998
    vertex 55.05769286535049 61.85907576382061 1.9999999999999998
  endloop
endfacet
facet normal 0.0 0.0 1.0
  outer loop
    vertex 55.05769286535049 61.85907576382061 1.9999999999999998
    vertex 55.66715274236464 43.35793707668683 1.9999999999999998
    vertex 56.466250757196185 62.69030783474348 1.9999999999999998
  endloop
endfacet
facet normal 0.0 0.0 1.0
  outer loop
    vertex 56.466250757196185 62.69030783474348 1.9999999999999998
    vertex 55.66715274236464 43.35793707668683 1.9999999999999998
    vertex 59.34887442968154 46.52409766018294 1.9999999999999998
  endloop
endfacet
facet normal 0.0 0.0 1.0
  outer loop
    vertex 56.466250757196185 62.69030783474348 1.9999999999999998
    vertex 59.34887442968154 46.52409766018294 1.9999999999999998
    vertex 57.85482917211318 63.23518488705059 1.9999999999999998
  endloop
endfacet
facet normal 0.0 0.0 1.0
  outer loop
    vertex 57.85482917211318 63.23518488705059 1.9999999999999998
    vertex 59.34887442968154 46.52409766018294 1.9999999999999998
    vertex 59.17678389928603 63.52590773403548 1.9999999999999998
  endloop
endfacet
facet normal 0.0 0.0 1.0
  outer loop
    vertex 59.17678389928603 63.52590773403548 1.9999999999999998
    vertex 59.34887442968154 46.52409766018294 1.9999999999999998
    vertex 60.45669589422011 63.59875891506573 1.9999999999999998
  endloop
endfacet
facet normal 0.0 0.0 1.0
  outer loop
    vertex 60.45669589422011 63.59875891506573 1.9999999999999998
    vertex 59.34887442968154 46.52409766018294 1.9999999999999998
    vertex 63.24440989873671 49.829561451076486 1.9999999999999998
  endloop
endfacet
facet normal 0.0 0.0 1.0
  outer loop
    vertex 60.45669589422011 63.59875891506573 1.9999999999999998
    vertex 63.24440989873671 49.829561451076486 1.9999999999999998
    vertex 61.57453570745253 63.48342154323957 1.9999999999999998
  endloop
endfacet
facet normal 0.0 0.0 1.0
  outer loop
    vertex 61.57453570745253 63.48342154323957 1.9999999999999998
    vertex 63.24440989873671 49.829561451076486 1.9999999999999998
    vertex 62.586112359979396 63.21453783810041 1.9999999999999998
  endloop
endfacet
facet normal 0.0 0.0 1.0
  outer loop
    vertex 62.586112359979396 63.21453783810041 1.9999999999999998
    vertex 63.24440989873671 49.829561451076486 1.9999999999999998
    vertex 63.49871192357802 62.80848715603254 1.9999999999999998
  endloop
endfacet
facet normal 0.0 0.0 1.0
  outer loop
    vertex 63.49871192357802 62.80848715603254 1.9999999999999998
    vertex 63.24440989873671 49.829561451076486 1.9999999999999998
    vertex 64.47151217839979 51.070773342250796 1.9999999999999998
  endloop
endfacet
facet normal 0.0 0.0 1.0
  outer loop
    vertex 63.49871192357802 62.80848715603254 1.9999999999999998
    vertex 64.47151217839979 51.070773342250796 1.9999999999999998
    vertex 64.32190452001358 62.26878855526351 1.9999999999999998
  endloop
endfacet
facet normal 0.0 0.0 1.0
  outer loop
    vertex 64.32190452001358 62.26878855526351 1.9999999999999998
    vertex 64.47151217839979 51.070773342250796 1.9999999999999998
    vertex 65.05959544561172 61.58795569240948 1.9999999999999998
  endloop
endfacet
facet normal 0.0 0.0 1.0
  outer loop
    vertex 65.05959544561172 61.58795569240948 1.9999999999999998
    vertex 64.47151217839979 51.070773342250796 1.9999999999999998
    vertex 65.57676825902723 52.448012569545725 1.9999999999999998
  endloop
endfacet
facet normal 0.0 0.0 1.0
  outer loop
    vertex 65.05959544561172 61.58795569240948 1.9999999999999998
    vertex 65.57676825902723 52.448012569545725 1.9999999999999998
    vertex 65.54152522466445 60.993177631496415 1.9999999999999998
  endloop
endfacet
facet normal 0.0 0.0 1.0
  outer loop
    vertex 65.54152522466445 60.993177631496415 1.9999999999999998
    vertex 65.57676825902723 52.448012569545725 1.9999999999999998
    vertex 66.07995543859266 60.09602759182355 1.9999999999999998
  endloop
endfacet
facet normal 0.0 0.0 1.0
  outer loop
    vertex 66.07995543859266 60.09602759182355 1.9999999999999998
    vertex 65.57676825902723 52.448012569545725 1.9999999999999998
    vertex 66.22467074773573 53.53804800808333 1.9999999999999998
  endloop
endfacet
facet normal 0.0 0.0 1.0
  outer loop
    vertex 66.07995543859266 60.09602759182355 1.9999999999999998
    vertex 66.22467074773573 53.53804800808333 1.9999999999999998
    vertex 66.55530963323379 58.8894054681053 1.9999999999999998
  endloop
endfacet
facet normal 0.0 0.0 1.0
  outer loop
    vertex 66.55530963323379 58.8894054681053 1.9999999999999998
    vertex 66.22467074773573 53.53804800808333 1.9999999999999998
    vertex 66.61035571477674 54.49188444912335 1.9999999999999998
  endloop
endfacet
facet normal 0.0 0.0 1.0
  outer loop
    vertex 66.55530963323379 58.8894054681053 1.9999999999999998
    vertex 66.61035571477674 54.49188444912335 1.9999999999999998
    vertex 66.82560000798965 57.66853545009992 1.9999999999999998
  endloop
endfacet
facet normal 0.0 0.0 1.0
  outer loop
    vertex 66.82560000798965 57.66853545009992 1.9999999999999998
    vertex 66.61035571477674 54.49188444912335 1.9999999999999998
    vertex 66.84108767888809 55.52226755916975 1.9999999999999998
  endloop
endfacet
facet normal 0.0 0.0 1.0
  outer loop
    vertex 66.82560000798965 57.66853545009992 1.9999999999999998
    vertex 66.84108767888809 55.52226755916975 1.9999999999999998
    vertex 66.90983806035781 56.521036365627275 1.9999999999999998
  endloop
endfacet
facet normal -0.8301558692653401 -0.5575313737578431 0.0
  outer loop
    vertex 50.66358600042128 41.17544386684797 1.9999999999999998
    vertex 51.549730638482814 39.8559877663841 0.0
    vertex 51.549730638482814 39.8559877663841 1.9999999999999998
  endloop
endfacet
facet normal -0.8301558692653401 -0.5575313737578431 0.0
  outer loop
    vertex 51.549730638482814 39.8559877663841 0.0
    vertex 50.66358600042128 41.17544386684797 1.9999999999999998
    vertex 50.66358600042128 41.17544386684797 0.0
  endloop
endfacet
facet normal -0.9028783307167787 -0.4298961734210756 0.0
  outer loop
    vertex 51.549730638482814 39.8559877663841 1.9999999999999998
    vertex 52.11556468389296 38.66760943233867 0.0
    vertex 52.11556468389296 38.66760943233867 1.9999999999999998
  endloop
endfacet
facet normal -0.9028783307167787 -0.4298961734210756 0.0
  outer loop
    vertex 52.11556468389296 38.66760943233867 0.0
    vertex 51.549730638482814 39.8559877663841 1.9999999999999998
    vertex 51.549730638482814 39.8559877663841 0.0
  endloop
endfacet
facet normal 0.8703480956361609 -0.49243699335296515 0.0
  outer loop
    vertex 52.68478904149793 39.67367384731673 0.0
    vertex 52.11556468389296 38.66760943233867 1.9999999999999998
    vertex 52.11556468389296 38.66760943233867 0.0
  endloop
endfacet
facet normal 0.8703480956361609 -0.49243699335296515 0.0
  outer loop
    vertex 52.11556468389296 38.66760943233867 1.9999999999999998
    vertex 52.68478904149793 39.67367384731673 0.0
    vertex 52.68478904149793 39.67367384731673 1.9999999999999998
  endloop
endfacet
facet normal 0.8353818800910545 -0.5496700050171331 0.0
  outer loop
    vertex 53.67627177617812 41.18051741421126 0.0
    vertex 52.68478904149793 39.67367384731673 1.9999999999999998
    vertex 52.68478904149793 39.67367384731673 0.0
  endloop
endfacet
facet normal 0.8353818800910545 -0.5496700050171331 0.0
  outer loop
    vertex 52.68478904149793 39.67367384731673 1.9999999999999998
    vertex 53.67627177617812 41.18051741421126 0.0
    vertex 53.67627177617812 41.18051741421126 1.9999999999999998
  endloop
endfacet
facet normal 0.7380123926462777 -0.6747871577768182 0.0
  outer loop
    vertex 55.66715274236464 43.35793707668683 0.0
    vertex 53.67627177617812 41.18051741421126 1.9999999999999998
    vertex 53.67627177617812 41.18051741421126 0.0
  endloop
endfacet
facet normal 0.7380123926462777 -0.6747871577768182 0.0
  outer loop
    vertex 53.67627177617812 41.18051741421126 1.9999999999999998
    vertex 55.66715274236464 43.35793707668683 0.0
    vertex 55.66715274236464 43.35793707668683 1.9999999999999998
  endloop
endfacet
facet normal 0.652025054993193 -0.7581974199778867 0.0
  outer loop
    vertex 59.34887442968154 46.52409766018294 1.9999999999999998
    vertex 55.66715274236464 43.35793707668683 0.0
    vertex 59.34887442968154 46.52409766018294 0.0
  endloop
endfacet
facet normal 0.652025054993193 -0.7581974199778867 0.0
  outer loop
    vertex 55.66715274236464 43.35793707668683 0.0
    vertex 59.34887442968154 46.52409766018294 1.9999999999999998
    vertex 55.66715274236464 43.35793707668683 1.9999999999999998
  endloop
endfacet
facet normal 0.6469957669542603 -0.7624935918047238 0.0
  outer loop
    vertex 63.24440989873671 49.829561451076486 1.9999999999999998
    vertex 59.34887442968154 46.52409766018294 0.0
    vertex 63.24440989873671 49.829561451076486 0.0
  endloop
endfacet
facet normal 0.6469957669542603 -0.7624935918047238 0.0
  outer loop
    vertex 59.34887442968154 46.52409766018294 0.0
    vertex 63.24440989873671 49.829561451076486 1.9999999999999998
    vertex 59.34887442968154 46.52409766018294 1.9999999999999998
  endloop
endfacet
facet normal 0.7111371935437274 -0.7030532639556915 0.0
  outer loop
    vertex 64.47151217839979 51.070773342250796 0.0
    vertex 63.24440989873671 49.829561451076486 1.9999999999999998
    vertex 63.24440989873671 49.829561451076486 0.0
  endloop
endfacet
facet normal 0.7111371935437274 -0.7030532639556915 0.0
  outer loop
    vertex 63.24440989873671 49.829561451076486 1.9999999999999998
    vertex 64.47151217839979 51.070773342250796 0.0
    vertex 64.47151217839979 51.070773342250796 1.9999999999999998
  endloop
endfacet
facet normal 0.7799108153303567 -0.6258906614822899 0.0
  outer loop
    vertex 65.57676825902723 52.448012569545725 0.0
    vertex 64.47151217839979 51.070773342250796 1.9999999999999998
    vertex 64.47151217839979 51.070773342250796 0.0
  endloop
endfacet
facet normal 0.7799108153303567 -0.6258906614822899 0.0
  outer loop
    vertex 64.47151217839979 51.070773342250796 1.9999999999999998
    vertex 65.57676825902723 52.448012569545725 0.0
    vertex 65.57676825902723 52.448012569545725 1.9999999999999998
  endloop
endfacet
facet normal 0.8596144098015118 -0.510943310418679 0.0
  outer loop
    vertex 66.22467074773573 53.53804800808333 0.0
    vertex 65.57676825902723 52.448012569545725 1.9999999999999998
    vertex 65.57676825902723 52.448012569545725 0.0
  endloop
endfacet
facet normal 0.8596144098015118 -0.510943310418679 0.0
  outer loop
    vertex 65.57676825902723 52.448012569545725 1.9999999999999998
    vertex 66.22467074773573 53.53804800808333 0.0
    vertex 66.22467074773573 53.53804800808333 1.9999999999999998
  endloop
endfacet
facet normal 0.9270791567503666 -0.3748656254166679 0.0
  outer loop
    vertex 66.61035571477674 54.49188444912335 0.0
    vertex 66.22467074773573 53.53804800808333 1.9999999999999998
    vertex 66.22467074773573 53.53804800808333 0.0
  endloop
endfacet
facet normal 0.9270791567503666 -0.3748656254166679 0.0
  outer loop
    vertex 66.22467074773573 53.53804800808333 1.9999999999999998
    vertex 66.61035571477674 54.49188444912335 0.0
    vertex 66.61035571477674 54.49188444912335 1.9999999999999998
  endloop
endfacet
facet normal 0.9758332098413044 -0.21851669632047993 0.0
  outer loop
    vertex 66.84108767888809 55.52226755916975 0.0
    vertex 66.61035571477674 54.49188444912335 1.9999999999999998
    vertex 66.61035571477674 54.49188444912335 0.0
  endloop
endfacet
facet normal 0.9758332098413044 -0.21851669632047993 0.0
  outer loop
    vertex 66.61035571477674 54.49188444912335 1.9999999999999998
    vertex 66.84108767888809 55.52226755916975 0.0
    vertex 66.84108767888809 55.52226755916975 1.9999999999999998
  endloop
endfacet
facet normal 0.9976392484942487 -0.06867262819952924 0.0
  outer loop
    vertex 66.90983806035781 56.521036365627275 0.0
    vertex 66.84108767888809 55.52226755916975 1.9999999999999998
    vertex 66.84108767888809 55.52226755916975 0.0
  endloop
endfacet
facet normal 0.9976392484942487 -0.06867262819952924 0.0
  outer loop
    vertex 66.84108767888809 55.52226755916975 1.9999999999999998
    vertex 66.90983806035781 56.521036365627275 0.0
    vertex 66.90983806035781 56.521036365627275 1.9999999999999998
  endloop
endfacet
facet normal 0.997316318705393 0.0732131166111855 -0.0
  outer loop
    vertex 66.82560000798965 57.66853545009992 0.0
    vertex 66.90983806035781 56.521036365627275 1.9999999999999998
    vertex 66.90983806035781 56.521036365627275 0.0
  endloop
endfacet
facet normal 0.997316318705393 0.0732131166111855 -0.0
  outer loop
    vertex 66.90983806035781 56.521036365627275 1.9999999999999998
    vertex 66.82560000798965 57.66853545009992 0.0
    vertex 66.82560000798965 57.66853545009992 1.9999999999999998
  endloop
endfacet
facet normal 0.9763584909225611 0.21615757493879145 -0.0
  outer loop
    vertex 66.55530963323379 58.8894054681053 0.0
    vertex 66.82560000798965 57.66853545009992 1.9999999999999998
    vertex 66.82560000798965 57.66853545009992 0.0
  endloop
endfacet
facet normal 0.9763584909225611 0.21615757493879145 -0.0
  outer loop
    vertex 66.82560000798965 57.66853545009992 1.9999999999999998
    vertex 66.55530963323379 58.8894054681053 0.0
    vertex 66.55530963323379 58.8894054681053 1.9999999999999998
  endloop
endfacet
facet normal 0.9304036052965724 0.3665366710864552 -0.0
  outer loop
    vertex 66.07995543859266 60.09602759182355 0.0
    vertex 66.55530963323379 58.8894054681053 1.9999999999999998
    vertex 66.55530963323379 58.8894054681053 0.0
  endloop
endfacet
facet normal 0.9304036052965724 0.3665366710864552 -0.0
  outer loop
    vertex 66.55530963323379 58.8894054681053 1.9999999999999998
    vertex 66.07995543859266 60.09602759182355 0.0
    vertex 66.07995543859266 60.09602759182355 1.9999999999999998
  endloop
endfacet
facet normal 0.8574338094641705 0.5145942696802605 -0.0
  outer loop
    vertex 65.54152522466445 60.993177631496415 0.0
    vertex 66.07995543859266 60.09602759182355 1.9999999999999998
    vertex 66.07995543859266 60.09602759182355 0.0
  endloop
endfacet
facet normal 0.8574338094641705 0.5145942696802605 -0.0
  outer loop
    vertex 66.07995543859266 60.09602759182355 1.9999999999999998
    vertex 65.54152522466445 60.993177631496415 0.0
    vertex 65.54152522466445 60.993177631496415 1.9999999999999998
  endloop
endfacet
facet normal 0.7769619295434234 0.6295475836187131 -0.0
  outer loop
    vertex 65.05959544561172 61.58795569240948 0.0
    vertex 65.54152522466445 60.993177631496415 1.9999999999999998
    vertex 65.54152522466445 60.993177631496415 0.0
  endloop
endfacet
facet normal 0.7769619295434234 0.6295475836187131 -0.0
  outer loop
    vertex 65.54152522466445 60.993177631496415 1.9999999999999998
    vertex 65.05959544561172 61.58795569240948 0.0
    vertex 65.05959544561172 61.58795569240948 1.9999999999999998
  endloop
endfacet
facet normal 0.6782195332613189 0.734859350286025 -0.0
  outer loop
    vertex 64.32190452001358 62.26878855526351 1.9999999999999998
    vertex 65.05959544561172 61.58795569240948 0.0
    vertex 64.32190452001358 62.26878855526351 0.0
  endloop
endfacet
facet normal 0.6782195332613189 0.734859350286025 -0.0
  outer loop
    vertex 65.05959544561172 61.58795569240948 0.0
    vertex 64.32190452001358 62.26878855526351 1.9999999999999998
    vertex 65.05959544561172 61.58795569240948 1.9999999999999998
  endloop
endfacet
facet normal 0.5482860427409518 0.8362908676623627 -0.0
  outer loop
    vertex 63.49871192357802 62.80848715603254 1.9999999999999998
    vertex 64.32190452001358 62.26878855526351 0.0
    vertex 63.49871192357802 62.80848715603254 0.0
  endloop
endfacet
facet normal 0.5482860427409518 0.8362908676623627 -0.0
  outer loop
    vertex 64.32190452001358 62.26878855526351 0.0
    vertex 63.49871192357802 62.80848715603254 1.9999999999999998
    vertex 64.32190452001358 62.26878855526351 1.9999999999999998
  endloop
endfacet
facet normal 0.4065153670957695 0.9136439439491687 -0.0
  outer loop
    vertex 62.586112359979396 63.21453783810041 1.9999999999999998
    vertex 63.49871192357802 62.80848715603254 0.0
    vertex 62.586112359979396 63.21453783810041 0.0
  endloop
endfacet
facet normal 0.4065153670957695 0.9136439439491687 -0.0
  outer loop
    vertex 63.49871192357802 62.80848715603254 0.0
    vertex 62.586112359979396 63.21453783810041 1.9999999999999998
    vertex 63.49871192357802 62.80848715603254 1.9999999999999998
  endloop
endfacet
facet normal 0.2568865063542572 0.9664415775685069 -0.0
  outer loop
    vertex 61.57453570745253 63.48342154323957 1.9999999999999998
    vertex 62.586112359979396 63.21453783810041 0.0
    vertex 61.57453570745253 63.48342154323957 0.0
  endloop
endfacet
facet normal 0.2568865063542572 0.9664415775685069 -0.0
  outer loop
    vertex 62.586112359979396 63.21453783810041 0.0
    vertex 61.57453570745253 63.48342154323957 1.9999999999999998
    vertex 62.586112359979396 63.21453783810041 1.9999999999999998
  endloop
endfacet
facet normal 0.10263393397037213 0.9947191943446981 -0.0
  outer loop
    vertex 60.45669589422011 63.59875891506573 1.9999999999999998
    vertex 61.57453570745253 63.48342154323957 0.0
    vertex 60.45669589422011 63.59875891506573 0.0
  endloop
endfacet
facet normal 0.10263393397037213 0.9947191943446981 -0.0
  outer loop
    vertex 61.57453570745253 63.48342154323957 0.0
    vertex 60.45669589422011 63.59875891506573 1.9999999999999998
    vertex 61.57453570745253 63.48342154323957 1.9999999999999998
  endloop
endfacet
facet normal -0.05682692019584705 0.9983840449151092 0.0
  outer loop
    vertex 59.17678389928603 63.52590773403548 1.9999999999999998
    vertex 60.45669589422011 63.59875891506573 0.0
    vertex 59.17678389928603 63.52590773403548 0.0
  endloop
endfacet
facet normal -0.05682692019584705 0.9983840449151092 0.0
  outer loop
    vertex 60.45669589422011 63.59875891506573 0.0
    vertex 59.17678389928603 63.52590773403548 1.9999999999999998
    vertex 60.45669589422011 63.59875891506573 1.9999999999999998
  endloop
endfacet
facet normal -0.21478624382305683 0.9766610821899183 0.0
  outer loop
    vertex 57.85482917211318 63.23518488705059 1.9999999999999998
    vertex 59.17678389928603 63.52590773403548 0.0
    vertex 57.85482917211318 63.23518488705059 0.0
  endloop
endfacet
facet normal -0.21478624382305683 0.9766610821899183 0.0
  outer loop
    vertex 59.17678389928603 63.52590773403548 0.0
    vertex 57.85482917211318 63.23518488705059 1.9999999999999998
    vertex 59.17678389928603 63.52590773403548 1.9999999999999998
  endloop
endfacet
facet normal -0.36528303892996977 0.930896504166863 0.0
  outer loop
    vertex 56.466250757196185 62.69030783474348 1.9999999999999998
    vertex 57.85482917211318 63.23518488705059 0.0
    vertex 56.466250757196185 62.69030783474348 0.0
  endloop
endfacet
facet normal -0.36528303892996977 0.930896504166863 0.0
  outer loop
    vertex 57.85482917211318 63.23518488705059 0.0
    vertex 56.466250757196185 62.69030783474348 1.9999999999999998
    vertex 57.85482917211318 63.23518488705059 1.9999999999999998
  endloop
endfacet
facet normal -0.5082318191239793 0.8612203074881194 0.0
  outer loop
    vertex 55.05769286535049 61.85907576382061 1.9999999999999998
    vertex 56.466250757196185 62.69030783474348 0.0
    vertex 55.05769286535049 61.85907576382061 0.0
  endloop
endfacet
facet normal -0.5082318191239793 0.8612203074881194 0.0
  outer loop
    vertex 56.466250757196185 62.69030783474348 0.0
    vertex 55.05769286535049 61.85907576382061 1.9999999999999998
    vertex 56.466250757196185 62.69030783474348 1.9999999999999998
  endloop
endfacet
facet normal -0.6395969161632332 0.7687104687946446 0.0
  outer loop
    vertex 53.68624244115615 60.71797583401104 1.9999999999999998
    vertex 55.05769286535049 61.85907576382061 0.0
    vertex 53.68624244115615 60.71797583401104 0.0
  endloop
endfacet
facet normal -0.6395969161632332 0.7687104687946446 0.0
  outer loop
    vertex 55.05769286535049 61.85907576382061 0.0
    vertex 53.68624244115615 60.71797583401104 1.9999999999999998
    vertex 55.05769286535049 61.85907576382061 1.9999999999999998
  endloop
endfacet
facet normal -0.7536948547323505 0.6572245171552726 0.0
  outer loop
    vertex 53.68624244115615 60.71797583401104 1.9999999999999998
    vertex 52.44415793798232 59.29357264339827 0.0
    vertex 52.44415793798232 59.29357264339827 1.9999999999999998
  endloop
endfacet
facet normal -0.7536948547323505 0.6572245171552726 0.0
  outer loop
    vertex 52.44415793798232 59.29357264339827 0.0
    vertex 53.68624244115615 60.71797583401104 1.9999999999999998
    vertex 53.68624244115615 60.71797583401104 0.0
  endloop
endfacet
facet normal -0.8135502756425419 0.5814945820916513 0.0
  outer loop
    vertex 52.44415793798232 59.29357264339827 1.9999999999999998
    vertex 52.16797385595106 58.90717242061993 0.0
    vertex 52.16797385595106 58.90717242061993 1.9999999999999998
  endloop
endfacet
facet normal -0.8135502756425419 0.5814945820916513 0.0
  outer loop
    vertex 52.16797385595106 58.90717242061993 0.0
    vertex 52.44415793798232 59.29357264339827 1.9999999999999998
    vertex 52.44415793798232 59.29357264339827 0.0
  endloop
endfacet
facet normal 0.775342425868115 0.6315410696454719 -0.0
  outer loop
    vertex 50.88959727666639 60.47663424312971 0.0
    vertex 52.16797385595106 58.90717242061993 1.9999999999999998
    vertex 52.16797385595106 58.90717242061993 0.0
  endloop
endfacet
facet normal 0.775342425868115 0.6315410696454719 -0.0
  outer loop
    vertex 52.16797385595106 58.90717242061993 1.9999999999999998
    vertex 50.88959727666639 60.47663424312971 0.0
    vertex 50.88959727666639 60.47663424312971 1.9999999999999998
  endloop
endfacet
facet normal 0.6589210025194736 0.7522121458995008 -0.0
  outer loop
    vertex 49.462304452874896 61.72691080868147 1.9999999999999998
    vertex 50.88959727666639 60.47663424312971 0.0
    vertex 49.462304452874896 61.72691080868147 0.0
  endloop
endfacet
facet normal 0.6589210025194736 0.7522121458995008 -0.0
  outer loop
    vertex 50.88959727666639 60.47663424312971 0.0
    vertex 49.462304452874896 61.72691080868147 1.9999999999999998
    vertex 50.88959727666639 60.47663424312971 1.9999999999999998
  endloop
endfacet
facet normal 0.5222380482605316 0.8527997543087305 -0.0
  outer loop
    vertex 47.96885524175429 62.64147017300031 1.9999999999999998
    vertex 49.462304452874896 61.72691080868147 0.0
    vertex 47.96885524175429 62.64147017300031 0.0
  endloop
endfacet
facet normal 0.5222380482605316 0.8527997543087305 -0.0
  outer loop
    vertex 49.462304452874896 61.72691080868147 0.0
    vertex 47.96885524175429 62.64147017300031 1.9999999999999998
    vertex 49.462304452874896 61.72691080868147 1.9999999999999998
  endloop
endfacet
facet normal 0.3696532003239394 0.9291697969102685 -0.0
  outer loop
    vertex 46.46201167485977 63.24094031155012 1.9999999999999998
    vertex 47.96885524175429 62.64147017300031 0.0
    vertex 46.46201167485977 63.24094031155012 0.0
  endloop
endfacet
facet normal 0.3696532003239394 0.9291697969102685 -0.0
  outer loop
    vertex 47.96885524175429 62.64147017300031 0.0
    vertex 46.46201167485977 63.24094031155012 1.9999999999999998
    vertex 47.96885524175429 62.64147017300031 1.9999999999999998
  endloop
endfacet
facet normal 0.20433144791259 0.9789017618708961 -0.0
  outer loop
    vertex 44.99832187078261 63.54646418392561 1.9999999999999998
    vertex 46.46201167485977 63.24094031155012 0.0
    vertex 44.99832187078261 63.54646418392561 0.0
  endloop
endfacet
facet normal 0.20433144791259 0.9789017618708961 -0.0
  outer loop
    vertex 46.46201167485977 63.24094031155012 0.0
    vertex 44.99832187078261 63.54646418392561 1.9999999999999998
    vertex 46.46201167485977 63.24094031155012 1.9999999999999998
  endloop
endfacet
facet normal 0.03490201164624146 0.9993907391921568 -0.0
  outer loop
    vertex 43.6979297199037 63.59187815487289 1.9999999999999998
    vertex 44.99832187078261 63.54646418392561 0.0
    vertex 43.6979297199037 63.59187815487289 0.0
  endloop
endfacet
facet normal 0.03490201164624146 0.9993907391921568 -0.0
  outer loop
    vertex 44.99832187078261 63.54646418392561 0.0
    vertex 43.6979297199037 63.59187815487289 1.9999999999999998
    vertex 44.99832187078261 63.54646418392561 1.9999999999999998
  endloop
endfacet
facet normal -0.126937619378808 0.9919107020223348 0.0
  outer loop
    vertex 42.59579215429091 63.45083449184798 1.9999999999999998
    vertex 43.6979297199037 63.59187815487289 0.0
    vertex 42.59579215429091 63.45083449184798 0.0
  endloop
endfacet
facet normal -0.126937619378808 0.9919107020223348 0.0
  outer loop
    vertex 43.6979297199037 63.59187815487289 0.0
    vertex 42.59579215429091 63.45083449184798 1.9999999999999998
    vertex 43.6979297199037 63.59187815487289 1.9999999999999998
  endloop
endfacet
facet normal -0.280224520097408 0.9599344864813315 0.0
  outer loop
    vertex 41.60706553838515 63.16220495998761 1.9999999999999998
    vertex 42.59579215429091 63.45083449184798 0.0
    vertex 41.60706553838515 63.16220495998761 0.0
  endloop
endfacet
facet normal -0.280224520097408 0.9599344864813315 0.0
  outer loop
    vertex 42.59579215429091 63.45083449184798 0.0
    vertex 41.60706553838515 63.16220495998761 1.9999999999999998
    vertex 42.59579215429091 63.45083449184798 1.9999999999999998
  endloop
endfacet
facet normal -0.4346526788252922 0.9005981616625685 0.0
  outer loop
    vertex 40.63395057103896 62.69255373775862 1.9999999999999998
    vertex 41.60706553838515 63.16220495998761 0.0
    vertex 40.63395057103896 62.69255373775862 0.0
  endloop
endfacet
facet normal -0.4346526788252922 0.9005981616625685 0.0
  outer loop
    vertex 41.60706553838515 63.16220495998761 0.0
    vertex 40.63395057103896 62.69255373775862 1.9999999999999998
    vertex 41.60706553838515 63.16220495998761 1.9999999999999998
  endloop
endfacet
facet normal -0.5836621724324756 0.8119965938791883 0.0
  outer loop
    vertex 39.79413066289687 62.0888922005882 1.9999999999999998
    vertex 40.63395057103896 62.69255373775862 0.0
    vertex 39.79413066289687 62.0888922005882 0.0
  endloop
endfacet
facet normal -0.5836621724324756 0.8119965938791883 0.0
  outer loop
    vertex 40.63395057103896 62.69255373775862 0.0
    vertex 39.79413066289687 62.0888922005882 1.9999999999999998
    vertex 40.63395057103896 62.69255373775862 1.9999999999999998
  endloop
endfacet
facet normal -0.7128336406972748 0.7013331595541941 0.0
  outer loop
    vertex 39.79413066289687 62.0888922005882 1.9999999999999998
    vertex 39.0782073535707 61.36122916042707 0.0
    vertex 39.0782073535707 61.36122916042707 1.9999999999999998
  endloop
endfacet
facet normal -0.7128336406972748 0.7013331595541941 0.0
  outer loop
    vertex 39.0782073535707 61.36122916042707 0.0
    vertex 39.79413066289687 62.0888922005882 1.9999999999999998
    vertex 39.79413066289687 62.0888922005882 0.0
  endloop
endfacet
facet normal -0.8191777562120922 0.5735397141674866 0.0
  outer loop
    vertex 39.0782073535707 61.36122916042707 1.9999999999999998
    vertex 38.473282197931056 60.49722407162092 0.0
    vertex 38.473282197931056 60.49722407162092 1.9999999999999998
  endloop
endfacet
facet normal -0.8191777562120922 0.5735397141674866 0.0
  outer loop
    vertex 38.473282197931056 60.49722407162092 0.0
    vertex 39.0782073535707 61.36122916042707 1.9999999999999998
    vertex 39.0782073535707 61.36122916042707 0.0
  endloop
endfacet
facet normal -0.9009278758033662 0.43396884980426237 0.0
  outer loop
    vertex 38.473282197931056 60.49722407162092 1.9999999999999998
    vertex 37.98402343175673 59.48151324093246 0.0
    vertex 37.98402343175673 59.48151324093246 1.9999999999999998
  endloop
endfacet
facet normal -0.9009278758033662 0.43396884980426237 0.0
  outer loop
    vertex 37.98402343175673 59.48151324093246 0.0
    vertex 38.473282197931056 60.49722407162092 1.9999999999999998
    vertex 38.473282197931056 60.49722407162092 0.0
  endloop
endfacet
facet normal -0.9577411690198683 0.28763145371196097 0.0
  outer loop
    vertex 37.98402343175673 59.48151324093246 1.9999999999999998
    vertex 37.6197341480043 58.26852057278059 0.0
    vertex 37.6197341480043 58.26852057278059 1.9999999999999998
  endloop
endfacet
facet normal -0.9577411690198683 0.28763145371196097 0.0
  outer loop
    vertex 37.6197341480043 58.26852057278059 0.0
    vertex 37.98402343175673 59.48151324093246 1.9999999999999998
    vertex 37.98402343175673 59.48151324093246 0.0
  endloop
endfacet
facet normal -0.9903041945788018 0.13891580975407664 0.0
  outer loop
    vertex 37.6197341480043 58.26852057278059 1.9999999999999998
    vertex 37.44037661931777 56.98991511165997 0.0
    vertex 37.44037661931777 56.98991511165997 1.9999999999999998
  endloop
endfacet
facet normal -0.9903041945788018 0.13891580975407664 0.0
  outer loop
    vertex 37.44037661931777 56.98991511165997 0.0
    vertex 37.6197341480043 58.26852057278059 1.9999999999999998
    vertex 37.6197341480043 58.26852057278059 0.0
  endloop
endfacet
facet normal -0.9997589496874182 -0.021955466743173054 0.0
  outer loop
    vertex 37.44037661931777 56.98991511165997 1.9999999999999998
    vertex 37.46784243963027 55.73923800289533 0.0
    vertex 37.46784243963027 55.73923800289533 1.9999999999999998
  endloop
endfacet
facet normal -0.9997589496874182 -0.021955466743173054 0.0
  outer loop
    vertex 37.46784243963027 55.73923800289533 0.0
    vertex 37.44037661931777 56.98991511165997 1.9999999999999998
    vertex 37.44037661931777 56.98991511165997 0.0
  endloop
endfacet
facet normal -0.9830661180763418 -0.18325121415781184 0.0
  outer loop
    vertex 37.46784243963027 55.73923800289533 1.9999999999999998
    vertex 37.65538249395156 54.733164051174136 0.0
    vertex 37.65538249395156 54.733164051174136 1.9999999999999998
  endloop
endfacet
facet normal -0.9830661180763418 -0.18325121415781184 0.0
  outer loop
    vertex 37.65538249395156 54.733164051174136 0.0
    vertex 37.46784243963027 55.73923800289533 1.9999999999999998
    vertex 37.46784243963027 55.73923800289533 0.0
  endloop
endfacet
facet normal -0.9415360595817722 -0.3369122267108005 0.0
  outer loop
    vertex 37.65538249395156 54.733164051174136 1.9999999999999998
    vertex 37.994327882745516 53.78594610988996 0.0
    vertex 37.994327882745516 53.78594610988996 1.9999999999999998
  endloop
endfacet
facet normal -0.9415360595817722 -0.3369122267108005 0.0
  outer loop
    vertex 37.994327882745516 53.78594610988996 0.0
    vertex 37.65538249395156 54.733164051174136 1.9999999999999998
    vertex 37.65538249395156 54.733164051174136 0.0
  endloop
endfacet
facet normal -0.8741776618716707 -0.48560623501411027 0.0
  outer loop
    vertex 37.994327882745516 53.78594610988996 1.9999999999999998
    vertex 38.63724742315078 52.628576496242495 0.0
    vertex 38.63724742315078 52.628576496242495 1.9999999999999998
  endloop
endfacet
facet normal -0.8741776618716707 -0.48560623501411027 0.0
  outer loop
    vertex 38.63724742315078 52.628576496242495 0.0
    vertex 37.994327882745516 53.78594610988996 1.9999999999999998
    vertex 37.994327882745516 53.78594610988996 0.0
  endloop
endfacet
facet normal -0.7848787033737987 -0.6196494339465377 0.0
  outer loop
    vertex 38.63724742315078 52.628576496242495 1.9999999999999998
    vertex 39.884715417840724 51.04847166836165 0.0
    vertex 39.884715417840724 51.04847166836165 1.9999999999999998
  endloop
endfacet
facet normal -0.7848787033737987 -0.6196494339465377 0.0
  outer loop
    vertex 39.884715417840724 51.04847166836165 0.0
    vertex 38.63724742315078 52.628576496242495 1.9999999999999998
    vertex 38.63724742315078 52.628576496242495 0.0
  endloop
endfacet
facet normal -0.6863247557221616 -0.7272952149457023 0.0
  outer loop
    vertex 42.57681880376601 48.50802157223127 1.9999999999999998
    vertex 39.884715417840724 51.04847166836165 0.0
    vertex 42.57681880376601 48.50802157223127 0.0
  endloop
endfacet
facet normal -0.6863247557221616 -0.7272952149457023 0.0
  outer loop
    vertex 39.884715417840724 51.04847166836165 0.0
    vertex 42.57681880376601 48.50802157223127 1.9999999999999998
    vertex 39.884715417840724 51.04847166836165 1.9999999999999998
  endloop
endfacet
facet normal -0.6363555898716781 -0.7713958537865424 0.0
  outer loop
    vertex 46.96579490087294 44.88737795650861 1.9999999999999998
    vertex 42.57681880376601 48.50802157223127 0.0
    vertex 46.96579490087294 44.88737795650861 0.0
  endloop
endfacet
facet normal -0.6363555898716781 -0.7713958537865424 0.0
  outer loop
    vertex 42.57681880376601 48.50802157223127 0.0
    vertex 46.96579490087294 44.88737795650861 1.9999999999999998
    vertex 42.57681880376601 48.50802157223127 1.9999999999999998
  endloop
endfacet
facet normal -0.6738640930912192 -0.7388553201015396 0.0
  outer loop
    vertex 49.04038939855361 42.99526903927229 1.9999999999999998
    vertex 46.96579490087294 44.88737795650861 0.0
    vertex 49.04038939855361 42.99526903927229 0.0
  endloop
endfacet
facet normal -0.6738640930912192 -0.7388553201015396 0.0
  outer loop
    vertex 46.96579490087294 44.88737795650861 0.0
    vertex 49.04038939855361 42.99526903927229 1.9999999999999998
    vertex 46.96579490087294 44.88737795650861 1.9999999999999998
  endloop
endfacet
facet normal -0.7462731719492194 -0.665639807124582 0.0
  outer loop
    vertex 49.04038939855361 42.99526903927229 1.9999999999999998
    vertex 50.66358600042128 41.17544386684797 0.0
    vertex 50.66358600042128 41.17544386684797 1.9999999999999998
  endloop
endfacet
facet normal -0.7462731719492194 -0.665639807124582 0.0
  outer loop
    vertex 50.66358600042128 41.17544386684797 0.0
    vertex 49.04038939855361 42.99526903927229 1.9999999999999998
    vertex 49.04038939855361 42.99526903927229 0.0
  endloop
endfacet
endsolid Untitled-5b266224
